<?xml version="1.0" ?>
<!-- Uploaded to: SVG Repo, www.svgrepo.com, Generator: SVG Repo Mixer Tools -->
<svg width="800px" height="800px" viewBox="0 0 96 96" version="1.1" xml:space="preserve" xmlns="http://www.w3.org/2000/svg" xmlns:xlink="http://www.w3.org/1999/xlink">
<style type="text/css">
	.st0{display:none;}
	.st1{fill:#FFFFFF;}
	.st2{fill:none;stroke:#000000;stroke-width:2;stroke-linecap:round;stroke-linejoin:round;stroke-miterlimit:10;}
	.st3{fill:#FFF8FA;}
	.st4{stroke:#000000;stroke-width:2;stroke-miterlimit:10;}
	.st5{fill:none;stroke:#000000;stroke-miterlimit:10;}
	.st6{fill:none;stroke:#000000;stroke-width:2;stroke-linecap:round;stroke-miterlimit:10;}
	.st7{fill:#231F20;stroke:#000000;stroke-width:0;stroke-miterlimit:10;}
	.st8{fill:#FF0D5C;}
	.st9{display:inline;}
	.st10{fill:none;stroke:#00D8E9;stroke-width:0.25;stroke-linecap:round;stroke-linejoin:round;stroke-miterlimit:10;}
	.st11{fill:none;stroke:#00D8E9;stroke-width:0.25;stroke-linejoin:round;stroke-miterlimit:10;}
	.st12{fill:none;stroke:#00D8E9;stroke-linecap:round;stroke-linejoin:round;stroke-miterlimit:10;}
	.st13{fill:none;stroke:#00D8E9;stroke-linejoin:round;stroke-miterlimit:10;}
</style>
<g id="banana"/>
<g id="Layer_12"/>
<g id="grape"/>
<g id="assasin"/>
<g id="gold"/>
<g id="mage_ass"/>
<g id="fighter"/>
<g id="SUPPORT"/>
<g id="marksman"/>
<g id="JUNGLE"/>
<g id="TANK"/>
<g class="st0" id="creditcard"/>
<g class="st0" id="CAKE"/>
<g class="st0" id="TOPI"/>
<g class="st0" id="SPATU"/>
<g class="st0" id="SETTING"/>
<g class="st0" id="CART"/>
<g class="st0" id="k3"/>
<g class="st0" id="computer"/>
<g class="st0" id="phone"/>
<g class="st0" id="location"/>
<g id="koper">
<g id="Layer_29"/>
<g>
<path d="M77,73.1c-3.8,0-7-2.9-7-6.6s3.1-6.6,7-6.6c3.8,0,7,2.9,7,6.6S80.9,73.1,77,73.1z M77,62c-2.7,0-5,2-5,4.6s2.2,4.6,5,4.6    s5-2,5-4.6S79.8,62,77,62z"/>
<path d="M77,70.4c-2.2,0-4-1.7-4-3.8c0-2.1,1.8-3.8,4-3.8s4,1.7,4,3.8C81.1,68.7,79.3,70.4,77,70.4z M77,63.8c-1.7,0-3,1.3-3,2.8    c0,1.5,1.4,2.8,3,2.8s3-1.3,3-2.8C80.1,65.1,78.7,63.8,77,63.8z"/>
<path d="M77,70.4c-0.3,0-0.5-0.2-0.5-0.5v-6.6c0-0.3,0.2-0.5,0.5-0.5s0.5,0.2,0.5,0.5v6.6C77.5,70.2,77.3,70.4,77,70.4z"/>
<path d="M80.6,67h-7.1c-0.3,0-0.5-0.2-0.5-0.5s0.2-0.5,0.5-0.5h7.1c0.3,0,0.5,0.2,0.5,0.5S80.8,67,80.6,67z"/>
<path d="M79.5,69.4c-0.1,0-0.2,0-0.3-0.1l-5-4.7c-0.2-0.2-0.2-0.5,0-0.7c0.2-0.2,0.5-0.2,0.7,0l5,4.7c0.2,0.2,0.2,0.5,0,0.7    C79.8,69.4,79.7,69.4,79.5,69.4z"/>
<path d="M74.5,69.4c-0.1,0-0.3-0.1-0.4-0.2c-0.2-0.2-0.2-0.5,0-0.7l5-4.7c0.2-0.2,0.5-0.2,0.7,0c0.2,0.2,0.2,0.5,0,0.7l-5,4.7    C74.8,69.4,74.6,69.4,74.5,69.4z"/>
<path d="M71,58c-0.5,0-0.9-0.3-1-0.8L67.8,47c-0.1-0.5,0.2-1.1,0.8-1.2c0.5-0.1,1.1,0.2,1.2,0.8L72,56.8c0.1,0.5-0.2,1.1-0.8,1.2    C71.2,58,71.1,58,71,58z"/>
<path d="M68.8,47.9c-0.5,0-0.9-0.3-1-0.8l-2.3-10.2c-0.1-0.5,0.2-1.1,0.8-1.2c0.5-0.1,1.1,0.2,1.2,0.8l2.3,10.2    c0.1,0.5-0.2,1.1-0.8,1.2C68.9,47.9,68.8,47.9,68.8,47.9z"/>
<path d="M66.4,37c-0.5,0-0.9-0.3-1-0.8L64,29.9c-0.1-0.5,0.2-1.1,0.8-1.2c0.5-0.1,1.1,0.2,1.2,0.8l1.4,6.3    c0.1,0.5-0.2,1.1-0.8,1.2C66.5,37,66.5,37,66.4,37z"/>
<path d="M79.9,36.1L79.9,36.1c-0.6,0-1-0.4-1-1s0.4-1,1-1s1,0.4,1,1S80.5,36.1,79.9,36.1z"/>
<path d="M71.1,67.9H35c-1.1,0-1.5-0.4-1.5-1s1-1,1.5-1h35.6c0.5,0,1,0.4,1,1S71.1,67.9,71.1,67.9z"/>
<path d="M27.4,62c-0.5,0-0.9-0.3-1-0.8l-2.4-12.6c-0.1-0.5,0.3-1.1,0.8-1.2c0.5-0.1,1.1,0.3,1.2,0.8l2.4,12.5    c0.1,0.5-0.3,1.1-0.8,1.2C27.5,62,27.5,62,27.4,62z"/>
<path d="M23,39.3c-0.5,0-0.9-0.3-1-0.8l-2.3-12c-0.2-1.1-0.5-2-0.9-2.8c-0.3-0.5-0.1-1.1,0.4-1.4c0.5-0.3,1.1-0.1,1.4,0.4    c0.5,1,0.9,2.1,1.1,3.4l2.3,12c0.1,0.5-0.3,1.1-0.8,1.2C23.2,39.2,23.1,39.3,23,39.3z"/>
<path d="M28.5,72.9c-3.9,0-7-2.9-7-6.5s3.1-6.5,7-6.5s7,2.9,7,6.5S32.4,72.9,28.5,72.9z M28.5,61.9c-2.8,0-5,2-5,4.5    s2.2,4.5,5,4.5s5-2,5-4.5S31.3,61.9,28.5,61.9z"/>
<path d="M28.5,70.4c-1,0-1.9-0.4-2.6-1c-0.7-0.6-1.2-1.5-1.3-2.4c0-0.2,0-0.4,0-0.6c0-0.9,0.3-1.8,0.9-2.5    c0.8-0.9,1.9-1.5,3.1-1.5c0.2,0,0.4,0,0.6,0c1,0.1,1.9,0.7,2.6,1.5c0.5,0.7,0.8,1.5,0.8,2.4c0,0.2,0,0.4,0,0.6    c-0.1,0.8-0.5,1.5-1,2.1c-0.6,0.7-1.5,1.2-2.4,1.3C28.9,70.4,28.7,70.4,28.5,70.4z M28.5,63.4c-0.9,0-1.7,0.4-2.3,1.1    c-0.4,0.5-0.7,1.2-0.7,1.9c0,0.1,0,0.3,0,0.4c0.1,0.7,0.5,1.4,1,1.8c0.6,0.6,1.6,0.9,2.4,0.7c0.7-0.1,1.4-0.4,1.8-1    c0.4-0.4,0.7-1,0.7-1.6l0,0c0-0.1,0-0.3,0-0.4c0-0.7-0.2-1.3-0.6-1.8c-0.5-0.6-1.2-1-1.9-1.1C28.8,63.4,28.7,63.4,28.5,63.4z"/>
<path d="M28.8,70.4c-0.3,0-0.5-0.2-0.5-0.5v-7c0-0.3,0.2-0.5,0.5-0.5s0.5,0.2,0.5,0.5v7C29.3,70.2,29.1,70.4,28.8,70.4z"/>
<path d="M31.9,66.9h-6.8c-0.3,0-0.5-0.2-0.5-0.5s0.2-0.5,0.5-0.5h6.8c0.3,0,0.5,0.2,0.5,0.5S32.2,66.9,31.9,66.9z"/>
<path d="M31.2,69.3c-0.1,0-0.2,0-0.3-0.1l-2.6-2.4l-2.4-2.2c-0.2-0.2-0.2-0.5,0-0.7c0.2-0.2,0.5-0.2,0.7,0l5,4.7    c0.2,0.2,0.2,0.5,0,0.7C31.4,69.2,31.3,69.3,31.2,69.3z"/>
<path d="M26.1,69.3c-0.1,0-0.3-0.1-0.4-0.2c-0.2-0.2-0.2-0.5,0-0.7l5-4.6c0.2-0.2,0.5-0.2,0.7,0c0.2,0.2,0.2,0.5,0,0.7l0,0l-5,4.6    C26.4,69.2,26.3,69.3,26.1,69.3z"/>
<path d="M72.3,57.9H26.5c-0.6,0-1-0.4-1-1s0.4-1,1-1h45.8c0.4,0,0.7,0,1.1-0.1c1.4-0.2,1.5-0.8,1.8-2.3c0-0.2,0.1-0.5,0.1-0.7    l1.5-7.1c0.1-0.5,0.6-0.9,1.2-0.8c0.5,0.1,0.9,0.7,0.8,1.2l-1.5,7.1c0,0.2-0.1,0.4-0.1,0.7c-0.3,1.6-0.6,3.5-3.4,3.9    C73.2,57.9,72.8,57.9,72.3,57.9z"/>
<path d="M79.9,36.1c-0.1,0-0.1,0-0.2,0c-0.5-0.1-0.9-0.6-0.8-1.2l1.2-5.8l-5.5,0.4l-52.3,3c-0.5,0-1-0.4-1.1-0.9    c0-0.6,0.4-1,0.9-1.1l52.3-3l5.7-0.4c0.7,0,1.3,0.2,1.7,0.7c0.3,0.4,0.5,0.9,0.4,1.4l-1.3,6.2C80.8,35.8,80.4,36.1,79.9,36.1z     M80.2,28.7C80.2,28.7,80.2,28.7,80.2,28.7L80.2,28.7z"/>
<path d="M18.8,24.1L18.8,24.1l-5.3-0.4c0,0,0,0,0,0c-0.5,0-1-0.5-1-1.1c0-0.6,0.4-1.1,1-1.1l5.3,0.4c0,0,0,0,0,0    c0.5,0,1,0.5,1,1.1C19.7,23.6,19.3,24.1,18.8,24.1z M13.5,22.6l0.1,0.2l5.2,0.4l0-0.2L13.5,22.6z"/>
<path d="M41.1,58c-0.4,0-0.8-0.3-0.9-0.7l0-0.1l-1.9-8.9c-0.1-0.5,0.2-1.1,0.8-1.2c0.5-0.1,1.1,0.2,1.2,0.8l1.9,8.9    c0.1,0.5-0.2,1.1-0.8,1.2C41.2,58,41.2,58,41.1,58z"/>
<path d="M38.9,48.3c-0.5,0-0.9-0.3-1-0.8l-1.9-9c-0.1-0.5,0.2-1.1,0.8-1.2c0.5-0.1,1.1,0.2,1.2,0.8l1.9,9c0.1,0.5-0.2,1.1-0.8,1.2    C39.1,48.3,39,48.3,38.9,48.3z"/>
<path d="M37,38.7c-0.5,0-0.9-0.3-1-0.8l-1.4-6.7c-0.1-0.5,0.2-1.1,0.8-1.2c0.5-0.1,1.1,0.2,1.2,0.8l1.4,6.7    c0.1,0.5-0.2,1.1-0.8,1.2C37.1,38.7,37.1,38.7,37,38.7z"/>
<path d="M40,31.5c-0.6,0-1-0.4-1-1v0c0-0.6,0.4-1,1-1s1,0.4,1,1S40.6,31.5,40,31.5z"/>
<path d="M55.9,58c-0.4,0-0.8-0.3-0.9-0.7l-2.2-9.8c-0.1-0.5,0.2-1.1,0.8-1.2c0.5-0.1,1.1,0.2,1.2,0.8l2.2,9.7    c0.1,0.5-0.2,1.1-0.7,1.2C56.1,58,56,58,55.9,58z"/>
<path d="M53.8,47.8c-0.5,0-0.9-0.3-1-0.8l-2.3-10c-0.1-0.5,0.2-1.1,0.8-1.2c0.5-0.1,1.1,0.2,1.2,0.8l0,0.2l2.2,9.8    c0.1,0.5-0.2,1.1-0.8,1.2C53.9,47.8,53.8,47.8,53.8,47.8z"/>
<path d="M51.5,37.9c-0.5,0-0.9-0.3-1-0.8L49,30.4c-0.1-0.5,0.2-1.1,0.8-1.2c0.5-0.1,1.1,0.2,1.2,0.8l1.5,6.7    c0.1,0.5-0.2,1.1-0.8,1.2C51.6,37.8,51.6,37.9,51.5,37.9z"/>
<path d="M24.2,49.5l-2.2-11.6L76,34.5l5.2-0.5l-2.7,13h-0.8l-1.3,0.1L71,47.4L24.2,49.5z M24.4,39.7l1.4,7.7l45-2l6-0.4l1.8-8.8    l-2.6,0.2L24.4,39.7z"/>
</g>
</g>
<g class="st0" id="guide"/>
<g id="MAGICAL"/>
<g id="phisical"/>
<g id="mango"/>
<g id="orange"/>
</svg>